PathFileType	4	(X/Y/Z)	s03c0102.trc
DataRate	CameraRate	NumFrames	NumMarkers	Units	OrigDataRate	OrigDataStartFrame	OrigNumFrames
200	200	6	52	mm	200	0	2000
Frame#	Time	racr			lacr			c7			jug			rlel			rdr			llel			ldr			s2			lic			ric			lasi			rasi			rpsi			lpsi			rgt			lgt			rth1			rth2			rth3			rth4			rlfc			rmfc			rsh1			rsh2			rsh3			rsh4			rlmal			rmmal			rcal			rtoe			rmt5			rmt1			lth1			lth2			lth4			lth3			llfc			lmfc			lsh1			lsh2			lsh3			lsh4			llmal			lmmal			lcal			ltoe			lmt1			lmt5			SBIKE			LBIKE			RBIKE			
		X1	Y1	Z1	X2	Y2	Z2	X3	Y3	Z3	X4	Y4	Z4	X5	Y5	Z5	X6	Y6	Z6	X7	Y7	Z7	X8	Y8	Z8	X9	Y9	Z9	X10	Y10	Z10	X11	Y11	Z11	X12	Y12	Z12	X13	Y13	Z13	X14	Y14	Z14	X15	Y15	Z15	X16	Y16	Z16	X17	Y17	Z17	X18	Y18	Z18	X19	Y19	Z19	X20	Y20	Z20	X21	Y21	Z21	X22	Y22	Z22	X23	Y23	Z23	X24	Y24	Z24	X25	Y25	Z25	X26	Y26	Z26	X27	Y27	Z27	X28	Y28	Z28	X29	Y29	Z29	X30	Y30	Z30	X31	Y31	Z31	X32	Y32	Z32	X33	Y33	Z33	X34	Y34	Z34	X35	Y35	Z35	X36	Y36	Z36	X37	Y37	Z37	X38	Y38	Z38	X39	Y39	Z39	X40	Y40	Z40	X41	Y41	Z41	X42	Y42	Z42	X43	Y43	Z43	X44	Y44	Z44	X45	Y45	Z45	X46	Y46	Z46	X47	Y47	Z47	X48	Y48	Z48	X49	Y49	Z49	X50	Y50	Z50	X51	Y51	Z51	X52	Y52	Z52	
0	0.0000	491.137243	1397.106629	-79.681865	473.016053	1404.648432	-396.714345	428.794761	1464.724348	-235.006206	457.629947	1294.599419	-232.093660	538.141404	1137.254212	19.872083	745.225196	941.593172	-40.600087	545.190213	1149.396507	-468.789554	748.243726	924.606596	-426.276951	-106.301570	1214.835768	-240.832793	85.893791	1200.053253	-414.868394	71.650024	1223.804918	-53.263821	86.905646	1122.614148	-387.379172	71.761132	1162.599697	-91.356647	-72.838239	1262.055599	-196.906003	-64.163726	1257.442743	-279.355863	-5.788127	1151.828216	-34.162139	2.431627	1103.462365	-438.048986	111.416075	1064.945284	-5.995084	200.391370	1062.006861	-2.865542	274.796514	1018.051633	-1.890561	211.667424	1093.927687	-17.895509	395.982099	952.697594	-19.758994	408.731360	943.554448	-147.988556	333.348384	797.654651	-11.502876	319.123371	712.083375	-31.516577	260.357654	645.704853	-40.880504	345.156831	703.080003	-57.719240	202.794717	526.243935	-71.491527	227.144610	546.210120	-158.270212	141.732713	473.543847	-115.819431	449.562787	507.026107	-115.293394	334.222582	473.218638	-46.522611	357.975410	494.267479	-161.001854	70.741725	960.169666	-466.465308	131.813267	898.968122	-473.815747	163.646370	917.254120	-469.699769	156.214112	813.178372	-465.616117	236.537482	709.622428	-455.343372	250.690076	699.652669	-331.593195	148.717251	559.457005	-468.365861	137.659369	478.099001	-447.122989	81.779985	406.283720	-432.445317	167.772414	468.146884	-424.002202	25.067085	294.311054	-404.381303	0.000000	0.000000	-0.000000	-45.000162	261.253081	-353.324487	257.453080	198.305117	-357.876425	164.535234	209.912211	-312.220405	134.435292	196.282319	-427.892599	-215.562755	944.456988	-231.988972	-9.475482	80.185762	-432.756023	-9.429482	80.906426	-32.717978	
1	0.0050	491.134332	1397.076526	-79.675115	472.998997	1404.630826	-396.701223	428.798997	1464.686718	-234.993823	457.582779	1294.573481	-232.034332	538.146243	1137.244005	19.878584	745.200269	941.572969	-40.617024	545.183254	1149.370263	-468.789402	748.217711	924.617148	-426.278055	-106.273914	1214.834980	-240.840493	85.854701	1200.056003	-414.825731	71.661954	1223.786144	-53.277209	86.895853	1122.622767	-387.368891	71.823633	1162.548511	-91.429558	-72.817429	1262.062716	-196.917705	-64.174658	1257.453521	-279.334108	-5.799483	1151.800683	-34.171468	2.408185	1103.471827	-438.057164	111.408748	1064.957462	-5.999140	200.418177	1061.992175	-2.870771	274.774610	1018.047159	-1.909980	211.677830	1093.911372	-17.872807	395.985044	952.668638	-19.762521	408.723954	943.543505	-147.982573	333.333633	797.654914	-11.508737	319.115432	712.124142	-31.517157	260.378621	645.699274	-40.875376	345.180953	703.059754	-57.725711	202.817994	526.245044	-71.498585	227.145765	546.197889	-158.281903	141.722066	473.542964	-115.819105	449.555015	507.029671	-115.277379	334.210077	473.206900	-46.529467	357.991430	494.282070	-160.984497	70.726967	960.198141	-466.477636	131.801316	898.965277	-473.846225	163.653570	917.242437	-469.694797	156.206368	813.190675	-465.628138	236.526724	709.624295	-455.338372	250.707207	699.676389	-331.596351	148.719533	559.467221	-468.362697	137.655247	478.120709	-447.138478	81.790380	406.280668	-432.441209	167.769742	468.133025	-423.973227	25.056876	294.308066	-404.376610	0.000000	0.000000	-0.000000	-44.996530	261.267610	-353.332480	257.450684	198.318062	-357.890377	164.543911	209.928850	-312.289119	134.433375	196.273900	-427.892057	-215.556962	944.456814	-231.979336	-9.485722	80.201691	-432.760409	-9.420997	80.908473	-32.723009	
2	0.0100	491.125190	1397.048673	-79.661133	472.970995	1404.610199	-396.667162	428.785789	1464.686655	-234.985712	457.581426	1294.591577	-232.030220	538.152618	1137.245303	19.906065	745.202335	941.588247	-40.622916	545.157036	1149.367630	-468.782015	748.213182	924.633252	-426.253975	-106.295240	1214.844343	-240.828659	85.867049	1200.063186	-414.862099	71.637182	1223.798547	-53.267019	86.869490	1122.633232	-387.373531	71.792368	1162.574043	-91.393083	-72.829280	1262.059587	-196.911557	-64.179534	1257.445148	-279.327152	-5.816611	1151.803186	-34.162836	2.395771	1103.480914	-438.049785	111.401037	1064.945791	-5.992500	200.413460	1061.981725	-2.880953	274.762756	1018.047786	-1.890838	211.657194	1093.909624	-17.878224	395.988988	952.682490	-19.754507	408.721169	943.553289	-147.988364	333.347893	797.650640	-11.500476	319.116070	712.117286	-31.519939	260.368447	645.684193	-40.876163	345.176353	703.066936	-57.720004	202.803797	526.251995	-71.482707	227.145164	546.203449	-158.281157	141.722068	473.539618	-115.830259	449.559911	507.033664	-115.273851	334.217648	473.192327	-46.544332	357.991364	494.282617	-160.984897	70.714891	960.206409	-466.473765	131.804687	898.988865	-473.833861	163.648845	917.258653	-469.680634	156.186391	813.197482	-465.632157	236.518926	709.633440	-455.339717	250.721306	699.675628	-331.574938	148.702400	559.481822	-468.377703	137.648824	478.122548	-447.145891	81.782857	406.287087	-432.435579	167.769139	468.138986	-423.967617	25.058025	294.299731	-404.385629	65.043478	305.890469	-317.631126	-44.998535	261.262843	-353.329155	257.445794	198.320810	-357.885943	164.524985	209.936307	-312.251708	134.425549	196.285051	-427.894515	-215.570294	944.455898	-231.987790	-9.494137	80.201502	-432.750723	-9.432166	80.903896	-32.731329	
3	0.0150	491.117903	1397.064307	-79.643036	472.938861	1403.684426	-392.902562	428.788120	1464.671251	-234.972016	457.354654	1295.252305	-232.896263	538.215962	1137.336088	19.833670	745.201228	941.568406	-40.623458	545.147582	1149.359249	-468.776316	748.327641	924.576694	-426.217167	-106.293877	1214.828721	-240.828196	85.178818	1200.464917	-415.756911	71.952362	1223.760232	-53.231234	87.199365	1122.035676	-386.144594	71.797935	1162.573626	-91.400213	-72.919401	1261.897847	-196.860387	-64.178841	1257.445034	-279.326031	-5.821564	1151.794380	-34.165213	2.435934	1103.338233	-438.047103	111.273224	1064.925072	-5.987917	200.375331	1061.987009	-2.859179	274.811584	1018.062644	-1.608678	210.847714	1094.320377	-18.605792	395.975721	952.668208	-19.746085	409.277838	941.469165	-143.501736	333.342657	797.660194	-11.504528	319.121456	712.117759	-31.513663	260.370907	645.685162	-40.877229	346.734233	704.114762	-57.318528	202.798382	526.254425	-71.492662	228.161379	545.481867	-157.170648	141.717601	473.544033	-115.827436	449.551952	507.045508	-115.286010	334.220249	473.203842	-46.526180	357.974954	494.275085	-160.984034	70.723425	960.212413	-466.462161	131.790345	898.993950	-473.831253	164.105152	916.661848	-468.499654	156.188305	813.189103	-465.642924	237.105238	708.957512	-453.984672	250.704258	699.678064	-331.584089	149.347213	558.571587	-466.810712	137.461572	476.022776	-444.037797	81.776048	406.292578	-432.448508	168.124886	467.245636	-422.196852	24.665867	295.364457	-405.824518	65.065599	305.899967	-317.638634	-44.997689	261.259779	-353.339307	257.437618	198.323016	-357.893276	164.549311	209.933447	-312.271668	135.617164	194.108243	-424.986103	-215.622455	944.480463	-232.405682	-9.490048	80.191439	-432.763365	-9.423359	80.901761	-32.723680	
4	0.0200	491.192562	1396.999604	-79.745121	473.006818	1404.315765	-394.895149	428.803368	1464.642224	-234.985359	457.324233	1295.224092	-232.847636	537.449891	1137.710044	18.828653	745.352584	941.731303	-40.691791	544.635885	1149.844458	-469.774800	748.154251	925.227749	-426.361607	-106.332090	1214.888463	-240.753863	86.151815	1201.247891	-417.594356	71.960167	1223.800167	-53.329936	86.855947	1122.479783	-387.526295	71.769555	1162.560801	-91.401196	-72.914835	1261.979585	-196.884092	-64.150561	1257.507139	-279.228729	-5.814708	1151.842247	-34.112491	2.352095	1103.027969	-437.822386	111.360880	1064.936817	-5.967375	200.436659	1062.005517	-2.865644	274.860169	1018.043102	-1.669232	210.920013	1094.320371	-18.623436	395.275234	953.075777	-20.660704	409.180009	942.251872	-144.827619	333.404274	797.690544	-11.502336	318.288134	712.425376	-32.340564	260.410457	645.682523	-40.862288	346.068517	704.407264	-58.100263	202.867613	526.225745	-71.500137	226.396993	546.412457	-157.931906	141.723685	473.567895	-115.743530	449.570200	507.023329	-115.318789	334.297253	473.202710	-46.530804	357.981223	494.245718	-161.010588	70.728480	960.108230	-466.529163	131.784876	898.870126	-473.871188	163.813272	917.276827	-469.952649	156.201701	813.217641	-465.663467	236.539935	709.553169	-455.568936	250.265711	700.096367	-332.187641	148.705622	559.454638	-468.431536	137.529865	477.952930	-447.470955	81.359383	407.147052	-433.514235	167.700118	467.702041	-423.017634	24.508522	295.061963	-405.301911	65.066265	305.898484	-317.645377	-44.905544	261.295082	-353.416063	256.809260	199.011415	-359.222387	164.341524	211.625073	-314.494226	134.990489	195.578382	-427.125076	-215.597831	944.456719	-232.515622	-9.738795	80.958415	-433.369662	-9.422873	80.867510	-32.758979	
5	0.0250	491.157935	1396.994516	-79.807164	472.961800	1404.308903	-395.084423	428.806362	1464.628230	-234.962281	457.286402	1295.212052	-232.841490	537.489412	1137.746557	18.881280	745.217499	941.591155	-40.625839	544.533916	1149.874360	-469.944362	748.133875	925.228380	-426.401042	-106.333287	1214.903549	-240.693313	86.262636	1201.384366	-417.965496	71.979544	1223.786722	-53.383000	86.927618	1122.503479	-387.034884	71.772478	1162.547230	-91.404177	-72.932809	1262.000638	-196.909954	-64.141903	1257.515933	-279.194256	-5.811637	1151.839200	-34.111770	2.240949	1103.324670	-438.167124	111.362496	1064.944881	-5.966328	200.457908	1062.018745	-2.876434	274.842630	1018.049504	-1.678562	210.921423	1094.324262	-18.625543	395.284684	953.070689	-20.739721	409.133012	942.301485	-144.989168	333.391918	797.658851	-11.453830	318.244761	712.431972	-32.424320	260.412547	645.684089	-40.873659	346.032704	704.417663	-58.164608	202.866957	526.227553	-71.520316	226.465773	546.375176	-157.938771	141.698346	473.556130	-115.766791	449.579581	507.014804	-115.332964	334.290519	473.202661	-46.524862	357.987468	494.256149	-161.024152	70.711446	960.216049	-466.448980	131.778561	898.989114	-473.841605	163.706526	917.268746	-469.744980	156.192623	813.222368	-465.634335	236.500551	709.647533	-455.408115	250.215437	700.106180	-332.240148	148.684565	559.475702	-468.379915	137.569932	477.965947	-447.519329	81.337569	407.074159	-433.411047	167.763337	468.122316	-423.972859	24.649529	295.357396	-405.826131	64.739032	305.855798	-318.530234	-44.984039	261.292287	-353.363757	256.964676	198.833970	-358.589591	164.406461	211.681830	-314.435937	134.889255	195.487732	-426.848418	-215.637343	944.470952	-232.412743	-9.815793	80.809776	-433.400739	-9.407926	80.915010	-32.780109	
